# xmcd
# Copyright (C) 1995-1998 Ti Kan
#
# Track frame offsets:
#       150
#       19997
#       37761
#       60767
#       75069
#       99339
#       120115
#       140493
#       154114
#       178489
#
# Disc length: 3585 seconds
#
# Revision: 2
# Processed by: cddbd v1.4PL0 Copyright (c) Steve Scherf et al.
# Submitted via: CD-Transfer v1.0
#
DISCID=670dff0a
DTITLE=Andi Hoffmann and B-Goes - Basil For Nino
DYEAR=1997
DGENRE=
TTITLE0=Loaded With Affection
TTITLE1=Jellyfish Heartache
TTITLE2=Man Of The Past
TTITLE3=Hit The Train Right On
TTITLE4=Big Flood
TTITLE5=Hurting You So Badly
TTITLE6=True Believer
TTITLE7=Silver Moon
TTITLE8=Basil For Nino
TTITLE9=Down In The Bayou
EXTD=
EXTT0=
EXTT1=
EXTT2=
EXTT3=
EXTT4=
EXTT5=
EXTT6=
EXTT7=
EXTT8=
EXTT9=
PLAYORDER=
